<svg xmlns="http://www.w3.org/2000/svg" viewBox="0 0 1600 900" width="1600" height="900" preserveAspectRatio="xMidYMid slice" role="img" aria-labelledby="t82 d82">
<title id="t82">Piel 82 · horizonte de neón bajo la lluvia con un coche patrulla volador</title>
<desc id="d82">Rascacielos de noche con ventanas encendidas y bandas de neón magenta, cian y ámbar, lluvia sesgada, asfalto mojado con reflejos y un coche volador con luces de patrulla y faros. Ilustración vectorial original de Admira para la piel de ejemplo 82: sin fotogramas, carteles, logotipos, títulos ni personajes de terceros.</desc>
<defs><linearGradient id="c82" x1="0" y1="0" x2="0" y2="1"><stop offset="0" stop-color="#07080D"/><stop offset=".55" stop-color="#1b0d2c"/><stop offset=".8" stop-color="#3b1040"/><stop offset="1" stop-color="#0c0e15"/></linearGradient>
<linearGradient id="a82" x1="0" y1="0" x2="0" y2="1"><stop offset="0" stop-color="#1a1530"/><stop offset="1" stop-color="#07080D"/></linearGradient>
<linearGradient id="fx82" x1="0" y1="0" x2="1" y2="0"><stop offset="0" stop-color="#fff6d8" stop-opacity=".55"/><stop offset="1" stop-color="#fff6d8" stop-opacity="0"/></linearGradient>
<filter id="g82" x="-50%" y="-50%" width="200%" height="200%"><feGaussianBlur stdDeviation="7"/></filter>
<filter id="g82b" x="-50%" y="-50%" width="200%" height="200%"><feGaussianBlur stdDeviation="16"/></filter><pattern id="ll82" width="36" height="90" patternUnits="userSpaceOnUse" patternTransform="rotate(14)"><line x1="8" y1="0" x2="8" y2="34" stroke="#bfe8ff" stroke-opacity=".22" stroke-width="1.4"/><line x1="26" y1="48" x2="26" y2="72" stroke="#bfe8ff" stroke-opacity=".16" stroke-width="1.2"/></pattern></defs>
<rect width="1600" height="900" fill="url(#c82)"/><ellipse cx="300" cy="700" rx="520" ry="200" fill="#FF3DB8" opacity=".18" filter="url(#g82b)"/><ellipse cx="1400" cy="560" rx="420" ry="180" fill="#2DE2E6" opacity=".12" filter="url(#g82b)"/><rect x="-20" y="165" width="117" height="557" fill="#120f22"/><rect x="72" y="214" width="6" height="8" fill="#ff8fd6" opacity="0.54"/><rect x="16" y="250" width="6" height="8" fill="#2DE2E6" opacity="0.55"/><rect x="2" y="304" width="6" height="8" fill="#ff8fd6" opacity="0.58"/><rect x="44" y="340" width="6" height="8" fill="#FFB347" opacity="0.85"/><rect x="16" y="358" width="6" height="8" fill="#2DE2E6" opacity="0.57"/><rect x="-12" y="376" width="6" height="8" fill="#2DE2E6" opacity="0.77"/><rect x="2" y="376" width="6" height="8" fill="#ff8fd6" opacity="0.67"/><rect x="72" y="376" width="6" height="8" fill="#FFB347" opacity="0.50"/><rect x="16" y="484" width="6" height="8" fill="#FFB347" opacity="0.67"/><rect x="2" y="502" width="6" height="8" fill="#2DE2E6" opacity="0.76"/><rect x="30" y="502" width="6" height="8" fill="#2DE2E6" opacity="0.74"/><rect x="16" y="520" width="6" height="8" fill="#2DE2E6" opacity="0.69"/><rect x="30" y="520" width="6" height="8" fill="#FFB347" opacity="0.37"/><rect x="44" y="538" width="6" height="8" fill="#FFB347" opacity="0.37"/><rect x="-12" y="574" width="6" height="8" fill="#FFB347" opacity="0.56"/><rect x="30" y="574" width="6" height="8" fill="#2DE2E6" opacity="0.75"/><rect x="58" y="574" width="6" height="8" fill="#ff8fd6" opacity="0.49"/><rect x="30" y="592" width="6" height="8" fill="#FFB347" opacity="0.79"/><rect x="-12" y="610" width="6" height="8" fill="#2DE2E6" opacity="0.43"/><rect x="2" y="610" width="6" height="8" fill="#FFB347" opacity="0.45"/><rect x="16" y="610" width="6" height="8" fill="#FFB347" opacity="0.42"/><rect x="72" y="610" width="6" height="8" fill="#2DE2E6" opacity="0.70"/><rect x="72" y="628" width="6" height="8" fill="#2DE2E6" opacity="0.70"/><rect x="44" y="646" width="6" height="8" fill="#FFB347" opacity="0.81"/><rect x="-12" y="664" width="6" height="8" fill="#ff8fd6" opacity="0.40"/><rect x="16" y="664" width="6" height="8" fill="#FFB347" opacity="0.36"/><rect x="16" y="682" width="6" height="8" fill="#ff8fd6" opacity="0.42"/><rect x="58" y="682" width="6" height="8" fill="#FFB347" opacity="0.63"/><rect x="95" y="196" width="119" height="526" fill="#120f22"/><rect x="173" y="210" width="6" height="8" fill="#FFB347" opacity="0.46"/><rect x="131" y="228" width="6" height="8" fill="#ff8fd6" opacity="0.46"/><rect x="159" y="228" width="6" height="8" fill="#FFB347" opacity="0.69"/><rect x="173" y="228" width="6" height="8" fill="#ff8fd6" opacity="0.69"/><rect x="201" y="228" width="6" height="8" fill="#ff8fd6" opacity="0.35"/><rect x="201" y="246" width="6" height="8" fill="#FFB347" opacity="0.67"/><rect x="103" y="264" width="6" height="8" fill="#ff8fd6" opacity="0.36"/><rect x="117" y="282" width="6" height="8" fill="#2DE2E6" opacity="0.61"/><rect x="145" y="282" width="6" height="8" fill="#ff8fd6" opacity="0.57"/><rect x="159" y="300" width="6" height="8" fill="#ff8fd6" opacity="0.84"/><rect x="117" y="336" width="6" height="8" fill="#2DE2E6" opacity="0.70"/><rect x="145" y="372" width="6" height="8" fill="#2DE2E6" opacity="0.79"/><rect x="173" y="426" width="6" height="8" fill="#ff8fd6" opacity="0.45"/><rect x="117" y="462" width="6" height="8" fill="#ff8fd6" opacity="0.70"/><rect x="131" y="480" width="6" height="8" fill="#ff8fd6" opacity="0.73"/><rect x="145" y="480" width="6" height="8" fill="#FFB347" opacity="0.83"/><rect x="159" y="498" width="6" height="8" fill="#ff8fd6" opacity="0.58"/><rect x="117" y="516" width="6" height="8" fill="#2DE2E6" opacity="0.67"/><rect x="131" y="516" width="6" height="8" fill="#FFB347" opacity="0.61"/><rect x="201" y="534" width="6" height="8" fill="#FFB347" opacity="0.51"/><rect x="131" y="552" width="6" height="8" fill="#FFB347" opacity="0.64"/><rect x="145" y="552" width="6" height="8" fill="#2DE2E6" opacity="0.73"/><rect x="173" y="570" width="6" height="8" fill="#ff8fd6" opacity="0.81"/><rect x="103" y="588" width="6" height="8" fill="#ff8fd6" opacity="0.52"/><rect x="145" y="606" width="6" height="8" fill="#FFB347" opacity="0.54"/><rect x="145" y="624" width="6" height="8" fill="#2DE2E6" opacity="0.75"/><rect x="201" y="624" width="6" height="8" fill="#FFB347" opacity="0.53"/><rect x="145" y="642" width="6" height="8" fill="#ff8fd6" opacity="0.37"/><rect x="103" y="660" width="6" height="8" fill="#ff8fd6" opacity="0.47"/><rect x="159" y="660" width="6" height="8" fill="#2DE2E6" opacity="0.43"/><rect x="117" y="678" width="6" height="8" fill="#ff8fd6" opacity="0.69"/><rect x="173" y="678" width="6" height="8" fill="#FFB347" opacity="0.84"/><rect x="173" y="696" width="6" height="8" fill="#FFB347" opacity="0.79"/><rect x="219" y="387" width="129" height="335" fill="#120f22"/><rect x="255" y="437" width="6" height="8" fill="#FFB347" opacity="0.78"/><rect x="283" y="437" width="6" height="8" fill="#ff8fd6" opacity="0.55"/><rect x="255" y="473" width="6" height="8" fill="#FFB347" opacity="0.49"/><rect x="283" y="473" width="6" height="8" fill="#ff8fd6" opacity="0.46"/><rect x="283" y="509" width="6" height="8" fill="#ff8fd6" opacity="0.82"/><rect x="311" y="509" width="6" height="8" fill="#2DE2E6" opacity="0.54"/><rect x="255" y="527" width="6" height="8" fill="#2DE2E6" opacity="0.71"/><rect x="297" y="545" width="6" height="8" fill="#FFB347" opacity="0.73"/><rect x="325" y="545" width="6" height="8" fill="#2DE2E6" opacity="0.74"/><rect x="227" y="581" width="6" height="8" fill="#FFB347" opacity="0.56"/><rect x="241" y="581" width="6" height="8" fill="#FFB347" opacity="0.59"/><rect x="269" y="581" width="6" height="8" fill="#ff8fd6" opacity="0.53"/><rect x="255" y="599" width="6" height="8" fill="#FFB347" opacity="0.59"/><rect x="311" y="599" width="6" height="8" fill="#FFB347" opacity="0.40"/><rect x="325" y="599" width="6" height="8" fill="#ff8fd6" opacity="0.47"/><rect x="227" y="617" width="6" height="8" fill="#FFB347" opacity="0.36"/><rect x="241" y="617" width="6" height="8" fill="#ff8fd6" opacity="0.49"/><rect x="325" y="617" width="6" height="8" fill="#FFB347" opacity="0.80"/><rect x="255" y="635" width="6" height="8" fill="#ff8fd6" opacity="0.76"/><rect x="269" y="635" width="6" height="8" fill="#ff8fd6" opacity="0.79"/><rect x="227" y="653" width="6" height="8" fill="#FFB347" opacity="0.50"/><rect x="227" y="707" width="6" height="8" fill="#ff8fd6" opacity="0.52"/><rect x="241" y="707" width="6" height="8" fill="#FFB347" opacity="0.47"/><rect x="356" y="427" width="124" height="295" fill="#120f22"/><rect x="364" y="441" width="6" height="8" fill="#ff8fd6" opacity="0.52"/><rect x="448" y="459" width="6" height="8" fill="#FFB347" opacity="0.55"/><rect x="448" y="495" width="6" height="8" fill="#FFB347" opacity="0.66"/><rect x="378" y="531" width="6" height="8" fill="#2DE2E6" opacity="0.47"/><rect x="392" y="531" width="6" height="8" fill="#2DE2E6" opacity="0.52"/><rect x="420" y="549" width="6" height="8" fill="#ff8fd6" opacity="0.78"/><rect x="448" y="549" width="6" height="8" fill="#ff8fd6" opacity="0.75"/><rect x="434" y="567" width="6" height="8" fill="#ff8fd6" opacity="0.64"/><rect x="448" y="567" width="6" height="8" fill="#ff8fd6" opacity="0.85"/><rect x="364" y="585" width="6" height="8" fill="#FFB347" opacity="0.55"/><rect x="406" y="585" width="6" height="8" fill="#ff8fd6" opacity="0.60"/><rect x="462" y="585" width="6" height="8" fill="#FFB347" opacity="0.60"/><rect x="434" y="603" width="6" height="8" fill="#FFB347" opacity="0.72"/><rect x="448" y="603" width="6" height="8" fill="#2DE2E6" opacity="0.77"/><rect x="406" y="639" width="6" height="8" fill="#ff8fd6" opacity="0.83"/><rect x="448" y="639" width="6" height="8" fill="#FFB347" opacity="0.83"/><rect x="462" y="639" width="6" height="8" fill="#ff8fd6" opacity="0.85"/><rect x="406" y="657" width="6" height="8" fill="#ff8fd6" opacity="0.76"/><rect x="406" y="675" width="6" height="8" fill="#2DE2E6" opacity="0.61"/><rect x="480" y="279" width="146" height="443" fill="#120f22"/><rect x="515" y="293" width="6" height="8" fill="#ff8fd6" opacity="0.85"/><rect x="557" y="311" width="6" height="8" fill="#FFB347" opacity="0.72"/><rect x="599" y="347" width="6" height="8" fill="#ff8fd6" opacity="0.36"/><rect x="543" y="365" width="6" height="8" fill="#2DE2E6" opacity="0.37"/><rect x="613" y="365" width="6" height="8" fill="#FFB347" opacity="0.43"/><rect x="571" y="383" width="6" height="8" fill="#FFB347" opacity="0.50"/><rect x="613" y="383" width="6" height="8" fill="#2DE2E6" opacity="0.55"/><rect x="515" y="401" width="6" height="8" fill="#FFB347" opacity="0.48"/><rect x="599" y="401" width="6" height="8" fill="#FFB347" opacity="0.69"/><rect x="501" y="437" width="6" height="8" fill="#2DE2E6" opacity="0.50"/><rect x="571" y="437" width="6" height="8" fill="#ff8fd6" opacity="0.64"/><rect x="571" y="455" width="6" height="8" fill="#2DE2E6" opacity="0.50"/><rect x="557" y="473" width="6" height="8" fill="#2DE2E6" opacity="0.83"/><rect x="585" y="473" width="6" height="8" fill="#ff8fd6" opacity="0.64"/><rect x="557" y="509" width="6" height="8" fill="#ff8fd6" opacity="0.46"/><rect x="599" y="527" width="6" height="8" fill="#2DE2E6" opacity="0.57"/><rect x="557" y="563" width="6" height="8" fill="#ff8fd6" opacity="0.73"/><rect x="529" y="599" width="6" height="8" fill="#2DE2E6" opacity="0.57"/><rect x="543" y="617" width="6" height="8" fill="#FFB347" opacity="0.36"/><rect x="613" y="617" width="6" height="8" fill="#ff8fd6" opacity="0.45"/><rect x="501" y="635" width="6" height="8" fill="#FFB347" opacity="0.77"/><rect x="529" y="635" width="6" height="8" fill="#ff8fd6" opacity="0.65"/><rect x="543" y="635" width="6" height="8" fill="#FFB347" opacity="0.35"/><rect x="557" y="635" width="6" height="8" fill="#FFB347" opacity="0.64"/><rect x="599" y="635" width="6" height="8" fill="#FFB347" opacity="0.54"/><rect x="599" y="653" width="6" height="8" fill="#2DE2E6" opacity="0.63"/><rect x="501" y="671" width="6" height="8" fill="#2DE2E6" opacity="0.69"/><rect x="529" y="671" width="6" height="8" fill="#ff8fd6" opacity="0.49"/><rect x="515" y="689" width="6" height="8" fill="#2DE2E6" opacity="0.35"/><rect x="543" y="689" width="6" height="8" fill="#2DE2E6" opacity="0.75"/><rect x="487" y="707" width="6" height="8" fill="#2DE2E6" opacity="0.55"/><rect x="613" y="707" width="6" height="8" fill="#FFB347" opacity="0.45"/><rect x="629" y="257" width="129" height="465" fill="#120f22"/><rect x="637" y="451" width="6" height="8" fill="#FFB347" opacity="0.68"/><rect x="651" y="487" width="6" height="8" fill="#FFB347" opacity="0.72"/><rect x="721" y="487" width="6" height="8" fill="#FFB347" opacity="0.73"/><rect x="651" y="505" width="6" height="8" fill="#2DE2E6" opacity="0.82"/><rect x="735" y="505" width="6" height="8" fill="#2DE2E6" opacity="0.48"/><rect x="637" y="541" width="6" height="8" fill="#ff8fd6" opacity="0.59"/><rect x="693" y="559" width="6" height="8" fill="#2DE2E6" opacity="0.55"/><rect x="735" y="577" width="6" height="8" fill="#ff8fd6" opacity="0.78"/><rect x="637" y="595" width="6" height="8" fill="#FFB347" opacity="0.84"/><rect x="721" y="595" width="6" height="8" fill="#FFB347" opacity="0.60"/><rect x="637" y="613" width="6" height="8" fill="#ff8fd6" opacity="0.60"/><rect x="679" y="613" width="6" height="8" fill="#ff8fd6" opacity="0.60"/><rect x="679" y="685" width="6" height="8" fill="#ff8fd6" opacity="0.54"/><rect x="767" y="335" width="82" height="387" fill="#120f22"/><rect x="802" y="438" width="6" height="8" fill="#2DE2E6" opacity="0.63"/><rect x="802" y="456" width="6" height="8" fill="#FFB347" opacity="0.49"/><rect x="830" y="456" width="6" height="8" fill="#FFB347" opacity="0.66"/><rect x="788" y="510" width="6" height="8" fill="#FFB347" opacity="0.56"/><rect x="830" y="510" width="6" height="8" fill="#FFB347" opacity="0.71"/><rect x="788" y="564" width="6" height="8" fill="#2DE2E6" opacity="0.53"/><rect x="830" y="582" width="6" height="8" fill="#FFB347" opacity="0.38"/><rect x="788" y="636" width="6" height="8" fill="#ff8fd6" opacity="0.77"/><rect x="847" y="345" width="131" height="377" fill="#120f22"/><rect x="855" y="395" width="6" height="8" fill="#FFB347" opacity="0.55"/><rect x="855" y="413" width="6" height="8" fill="#2DE2E6" opacity="0.75"/><rect x="855" y="485" width="6" height="8" fill="#FFB347" opacity="0.65"/><rect x="869" y="539" width="6" height="8" fill="#FFB347" opacity="0.55"/><rect x="883" y="539" width="6" height="8" fill="#ff8fd6" opacity="0.70"/><rect x="911" y="539" width="6" height="8" fill="#FFB347" opacity="0.52"/><rect x="939" y="539" width="6" height="8" fill="#FFB347" opacity="0.56"/><rect x="953" y="539" width="6" height="8" fill="#ff8fd6" opacity="0.39"/><rect x="869" y="575" width="6" height="8" fill="#ff8fd6" opacity="0.40"/><rect x="869" y="593" width="6" height="8" fill="#ff8fd6" opacity="0.41"/><rect x="883" y="611" width="6" height="8" fill="#2DE2E6" opacity="0.40"/><rect x="925" y="611" width="6" height="8" fill="#ff8fd6" opacity="0.39"/><rect x="953" y="611" width="6" height="8" fill="#2DE2E6" opacity="0.36"/><rect x="855" y="647" width="6" height="8" fill="#2DE2E6" opacity="0.60"/><rect x="911" y="665" width="6" height="8" fill="#2DE2E6" opacity="0.67"/><rect x="939" y="683" width="6" height="8" fill="#ff8fd6" opacity="0.82"/><rect x="925" y="701" width="6" height="8" fill="#FFB347" opacity="0.68"/><rect x="976" y="245" width="94" height="477" fill="#120f22"/><rect x="997" y="258" width="6" height="8" fill="#ff8fd6" opacity="0.52"/><rect x="1053" y="294" width="6" height="8" fill="#2DE2E6" opacity="0.76"/><rect x="983" y="312" width="6" height="8" fill="#ff8fd6" opacity="0.73"/><rect x="997" y="348" width="6" height="8" fill="#ff8fd6" opacity="0.43"/><rect x="1025" y="366" width="6" height="8" fill="#FFB347" opacity="0.55"/><rect x="1011" y="402" width="6" height="8" fill="#ff8fd6" opacity="0.36"/><rect x="997" y="438" width="6" height="8" fill="#FFB347" opacity="0.60"/><rect x="1025" y="456" width="6" height="8" fill="#2DE2E6" opacity="0.62"/><rect x="1011" y="474" width="6" height="8" fill="#2DE2E6" opacity="0.37"/><rect x="997" y="528" width="6" height="8" fill="#FFB347" opacity="0.63"/><rect x="1011" y="546" width="6" height="8" fill="#ff8fd6" opacity="0.76"/><rect x="1025" y="582" width="6" height="8" fill="#2DE2E6" opacity="0.61"/><rect x="1011" y="618" width="6" height="8" fill="#2DE2E6" opacity="0.71"/><rect x="1039" y="618" width="6" height="8" fill="#2DE2E6" opacity="0.62"/><rect x="1011" y="672" width="6" height="8" fill="#ff8fd6" opacity="0.59"/><rect x="1025" y="690" width="6" height="8" fill="#2DE2E6" opacity="0.81"/><rect x="1074" y="309" width="137" height="413" fill="#120f22"/><rect x="1096" y="322" width="6" height="8" fill="#2DE2E6" opacity="0.44"/><rect x="1082" y="340" width="6" height="8" fill="#FFB347" opacity="0.63"/><rect x="1110" y="340" width="6" height="8" fill="#FFB347" opacity="0.58"/><rect x="1138" y="340" width="6" height="8" fill="#ff8fd6" opacity="0.75"/><rect x="1096" y="376" width="6" height="8" fill="#2DE2E6" opacity="0.50"/><rect x="1110" y="394" width="6" height="8" fill="#ff8fd6" opacity="0.49"/><rect x="1082" y="412" width="6" height="8" fill="#FFB347" opacity="0.66"/><rect x="1152" y="412" width="6" height="8" fill="#2DE2E6" opacity="0.76"/><rect x="1124" y="448" width="6" height="8" fill="#FFB347" opacity="0.76"/><rect x="1152" y="448" width="6" height="8" fill="#2DE2E6" opacity="0.63"/><rect x="1180" y="448" width="6" height="8" fill="#ff8fd6" opacity="0.40"/><rect x="1124" y="466" width="6" height="8" fill="#FFB347" opacity="0.64"/><rect x="1152" y="466" width="6" height="8" fill="#FFB347" opacity="0.43"/><rect x="1096" y="484" width="6" height="8" fill="#FFB347" opacity="0.61"/><rect x="1180" y="484" width="6" height="8" fill="#2DE2E6" opacity="0.47"/><rect x="1194" y="484" width="6" height="8" fill="#2DE2E6" opacity="0.67"/><rect x="1180" y="502" width="6" height="8" fill="#FFB347" opacity="0.50"/><rect x="1082" y="520" width="6" height="8" fill="#FFB347" opacity="0.37"/><rect x="1194" y="538" width="6" height="8" fill="#2DE2E6" opacity="0.57"/><rect x="1096" y="574" width="6" height="8" fill="#ff8fd6" opacity="0.38"/><rect x="1166" y="574" width="6" height="8" fill="#2DE2E6" opacity="0.44"/><rect x="1180" y="610" width="6" height="8" fill="#ff8fd6" opacity="0.80"/><rect x="1124" y="628" width="6" height="8" fill="#2DE2E6" opacity="0.61"/><rect x="1138" y="628" width="6" height="8" fill="#FFB347" opacity="0.80"/><rect x="1152" y="628" width="6" height="8" fill="#2DE2E6" opacity="0.40"/><rect x="1082" y="646" width="6" height="8" fill="#2DE2E6" opacity="0.78"/><rect x="1152" y="646" width="6" height="8" fill="#2DE2E6" opacity="0.59"/><rect x="1110" y="664" width="6" height="8" fill="#2DE2E6" opacity="0.76"/><rect x="1110" y="682" width="6" height="8" fill="#2DE2E6" opacity="0.47"/><rect x="1216" y="416" width="124" height="306" fill="#120f22"/><rect x="1238" y="429" width="6" height="8" fill="#FFB347" opacity="0.75"/><rect x="1308" y="447" width="6" height="8" fill="#ff8fd6" opacity="0.55"/><rect x="1252" y="483" width="6" height="8" fill="#ff8fd6" opacity="0.54"/><rect x="1224" y="501" width="6" height="8" fill="#ff8fd6" opacity="0.40"/><rect x="1294" y="501" width="6" height="8" fill="#2DE2E6" opacity="0.84"/><rect x="1266" y="537" width="6" height="8" fill="#ff8fd6" opacity="0.79"/><rect x="1280" y="555" width="6" height="8" fill="#FFB347" opacity="0.76"/><rect x="1294" y="555" width="6" height="8" fill="#2DE2E6" opacity="0.69"/><rect x="1308" y="573" width="6" height="8" fill="#ff8fd6" opacity="0.71"/><rect x="1294" y="591" width="6" height="8" fill="#ff8fd6" opacity="0.83"/><rect x="1224" y="609" width="6" height="8" fill="#FFB347" opacity="0.41"/><rect x="1266" y="609" width="6" height="8" fill="#ff8fd6" opacity="0.56"/><rect x="1308" y="609" width="6" height="8" fill="#ff8fd6" opacity="0.59"/><rect x="1280" y="645" width="6" height="8" fill="#ff8fd6" opacity="0.64"/><rect x="1322" y="645" width="6" height="8" fill="#FFB347" opacity="0.47"/><rect x="1252" y="681" width="6" height="8" fill="#2DE2E6" opacity="0.39"/><rect x="1336" y="320" width="94" height="402" fill="#120f22"/><rect x="1357" y="333" width="6" height="8" fill="#2DE2E6" opacity="0.63"/><rect x="1371" y="333" width="6" height="8" fill="#ff8fd6" opacity="0.63"/><rect x="1399" y="369" width="6" height="8" fill="#2DE2E6" opacity="0.72"/><rect x="1357" y="441" width="6" height="8" fill="#FFB347" opacity="0.77"/><rect x="1357" y="495" width="6" height="8" fill="#2DE2E6" opacity="0.79"/><rect x="1343" y="513" width="6" height="8" fill="#FFB347" opacity="0.75"/><rect x="1357" y="513" width="6" height="8" fill="#ff8fd6" opacity="0.40"/><rect x="1357" y="549" width="6" height="8" fill="#FFB347" opacity="0.79"/><rect x="1371" y="549" width="6" height="8" fill="#ff8fd6" opacity="0.61"/><rect x="1413" y="621" width="6" height="8" fill="#ff8fd6" opacity="0.49"/><rect x="1435" y="324" width="125" height="398" fill="#120f22"/><rect x="1443" y="356" width="6" height="8" fill="#2DE2E6" opacity="0.58"/><rect x="1471" y="356" width="6" height="8" fill="#2DE2E6" opacity="0.52"/><rect x="1485" y="356" width="6" height="8" fill="#2DE2E6" opacity="0.37"/><rect x="1485" y="374" width="6" height="8" fill="#FFB347" opacity="0.48"/><rect x="1499" y="374" width="6" height="8" fill="#2DE2E6" opacity="0.73"/><rect x="1457" y="392" width="6" height="8" fill="#2DE2E6" opacity="0.70"/><rect x="1513" y="392" width="6" height="8" fill="#FFB347" opacity="0.54"/><rect x="1499" y="410" width="6" height="8" fill="#2DE2E6" opacity="0.70"/><rect x="1513" y="428" width="6" height="8" fill="#ff8fd6" opacity="0.58"/><rect x="1527" y="446" width="6" height="8" fill="#ff8fd6" opacity="0.60"/><rect x="1471" y="482" width="6" height="8" fill="#FFB347" opacity="0.61"/><rect x="1527" y="482" width="6" height="8" fill="#FFB347" opacity="0.73"/><rect x="1443" y="500" width="6" height="8" fill="#2DE2E6" opacity="0.58"/><rect x="1485" y="500" width="6" height="8" fill="#2DE2E6" opacity="0.47"/><rect x="1443" y="518" width="6" height="8" fill="#2DE2E6" opacity="0.72"/><rect x="1499" y="518" width="6" height="8" fill="#FFB347" opacity="0.83"/><rect x="1527" y="518" width="6" height="8" fill="#ff8fd6" opacity="0.47"/><rect x="1471" y="572" width="6" height="8" fill="#FFB347" opacity="0.39"/><rect x="1527" y="590" width="6" height="8" fill="#FFB347" opacity="0.39"/><rect x="1443" y="608" width="6" height="8" fill="#FFB347" opacity="0.39"/><rect x="1499" y="626" width="6" height="8" fill="#ff8fd6" opacity="0.52"/><rect x="1513" y="626" width="6" height="8" fill="#ff8fd6" opacity="0.81"/><rect x="1527" y="626" width="6" height="8" fill="#ff8fd6" opacity="0.48"/><rect x="1471" y="644" width="6" height="8" fill="#FFB347" opacity="0.49"/><rect x="1527" y="662" width="6" height="8" fill="#ff8fd6" opacity="0.52"/><rect x="1541" y="662" width="6" height="8" fill="#FFB347" opacity="0.56"/><rect x="1443" y="680" width="6" height="8" fill="#2DE2E6" opacity="0.70"/><rect x="1499" y="680" width="6" height="8" fill="#FFB347" opacity="0.37"/><rect x="1499" y="698" width="6" height="8" fill="#2DE2E6" opacity="0.43"/><rect x="1565" y="322" width="85" height="400" fill="#120f22"/><rect x="1587" y="408" width="6" height="8" fill="#2DE2E6" opacity="0.72"/><rect x="1573" y="426" width="6" height="8" fill="#2DE2E6" opacity="0.77"/><rect x="1587" y="426" width="6" height="8" fill="#ff8fd6" opacity="0.70"/><rect x="1573" y="444" width="6" height="8" fill="#ff8fd6" opacity="0.37"/><rect x="1587" y="444" width="6" height="8" fill="#FFB347" opacity="0.36"/><rect x="1615" y="462" width="6" height="8" fill="#FFB347" opacity="0.53"/><rect x="1629" y="480" width="6" height="8" fill="#2DE2E6" opacity="0.83"/><rect x="1629" y="552" width="6" height="8" fill="#2DE2E6" opacity="0.56"/><rect x="1573" y="570" width="6" height="8" fill="#ff8fd6" opacity="0.64"/><rect x="1615" y="570" width="6" height="8" fill="#FFB347" opacity="0.47"/><rect x="1615" y="588" width="6" height="8" fill="#2DE2E6" opacity="0.54"/><rect x="1587" y="606" width="6" height="8" fill="#ff8fd6" opacity="0.73"/><rect x="1573" y="624" width="6" height="8" fill="#2DE2E6" opacity="0.37"/><rect x="1587" y="642" width="6" height="8" fill="#FFB347" opacity="0.71"/><rect x="1601" y="696" width="6" height="8" fill="#2DE2E6" opacity="0.46"/><rect x="-40" y="349" width="183" height="413" fill="#0a0a14"/><rect x="38" y="362" width="6" height="8" fill="#FFB347" opacity="0.57"/><rect x="66" y="362" width="6" height="8" fill="#2DE2E6" opacity="0.66"/><rect x="-32" y="380" width="6" height="8" fill="#ffd9a0" opacity="0.55"/><rect x="-32" y="398" width="6" height="8" fill="#2DE2E6" opacity="0.40"/><rect x="94" y="398" width="6" height="8" fill="#ffd9a0" opacity="0.40"/><rect x="-32" y="416" width="6" height="8" fill="#2DE2E6" opacity="0.63"/><rect x="10" y="416" width="6" height="8" fill="#FFB347" opacity="0.50"/><rect x="52" y="416" width="6" height="8" fill="#2DE2E6" opacity="0.69"/><rect x="24" y="470" width="6" height="8" fill="#2DE2E6" opacity="0.46"/><rect x="24" y="488" width="6" height="8" fill="#ffd9a0" opacity="0.84"/><rect x="38" y="488" width="6" height="8" fill="#ffd9a0" opacity="0.37"/><rect x="52" y="488" width="6" height="8" fill="#ffd9a0" opacity="0.68"/><rect x="66" y="488" width="6" height="8" fill="#ffd9a0" opacity="0.70"/><rect x="122" y="488" width="6" height="8" fill="#2DE2E6" opacity="0.84"/><rect x="-4" y="542" width="6" height="8" fill="#FFB347" opacity="0.36"/><rect x="66" y="542" width="6" height="8" fill="#FFB347" opacity="0.76"/><rect x="94" y="542" width="6" height="8" fill="#2DE2E6" opacity="0.84"/><rect x="108" y="542" width="6" height="8" fill="#2DE2E6" opacity="0.42"/><rect x="-18" y="560" width="6" height="8" fill="#2DE2E6" opacity="0.37"/><rect x="-18" y="578" width="6" height="8" fill="#FFB347" opacity="0.72"/><rect x="10" y="578" width="6" height="8" fill="#FFB347" opacity="0.50"/><rect x="-18" y="596" width="6" height="8" fill="#FFB347" opacity="0.57"/><rect x="66" y="596" width="6" height="8" fill="#2DE2E6" opacity="0.82"/><rect x="122" y="596" width="6" height="8" fill="#2DE2E6" opacity="0.37"/><rect x="122" y="614" width="6" height="8" fill="#FFB347" opacity="0.37"/><rect x="10" y="632" width="6" height="8" fill="#FFB347" opacity="0.51"/><rect x="38" y="632" width="6" height="8" fill="#2DE2E6" opacity="0.38"/><rect x="94" y="632" width="6" height="8" fill="#2DE2E6" opacity="0.36"/><rect x="-32" y="668" width="6" height="8" fill="#ffd9a0" opacity="0.50"/><rect x="10" y="668" width="6" height="8" fill="#ffd9a0" opacity="0.53"/><rect x="94" y="686" width="6" height="8" fill="#2DE2E6" opacity="0.37"/><rect x="52" y="740" width="6" height="8" fill="#FFB347" opacity="0.75"/><rect x="152" y="422" width="168" height="340" fill="#0a0a14"/><rect x="201" y="436" width="6" height="8" fill="#2DE2E6" opacity="0.69"/><rect x="173" y="454" width="6" height="8" fill="#2DE2E6" opacity="0.75"/><rect x="201" y="454" width="6" height="8" fill="#FFB347" opacity="0.67"/><rect x="243" y="454" width="6" height="8" fill="#ffd9a0" opacity="0.70"/><rect x="229" y="472" width="6" height="8" fill="#FFB347" opacity="0.62"/><rect x="159" y="490" width="6" height="8" fill="#2DE2E6" opacity="0.83"/><rect x="201" y="490" width="6" height="8" fill="#2DE2E6" opacity="0.54"/><rect x="215" y="490" width="6" height="8" fill="#FFB347" opacity="0.52"/><rect x="271" y="508" width="6" height="8" fill="#ffd9a0" opacity="0.38"/><rect x="285" y="508" width="6" height="8" fill="#2DE2E6" opacity="0.39"/><rect x="159" y="526" width="6" height="8" fill="#FFB347" opacity="0.50"/><rect x="229" y="544" width="6" height="8" fill="#ffd9a0" opacity="0.48"/><rect x="271" y="544" width="6" height="8" fill="#FFB347" opacity="0.56"/><rect x="285" y="544" width="6" height="8" fill="#FFB347" opacity="0.61"/><rect x="173" y="562" width="6" height="8" fill="#2DE2E6" opacity="0.56"/><rect x="271" y="562" width="6" height="8" fill="#2DE2E6" opacity="0.37"/><rect x="201" y="598" width="6" height="8" fill="#FFB347" opacity="0.80"/><rect x="285" y="598" width="6" height="8" fill="#FFB347" opacity="0.45"/><rect x="173" y="616" width="6" height="8" fill="#ffd9a0" opacity="0.48"/><rect x="187" y="616" width="6" height="8" fill="#2DE2E6" opacity="0.40"/><rect x="257" y="616" width="6" height="8" fill="#FFB347" opacity="0.74"/><rect x="257" y="652" width="6" height="8" fill="#ffd9a0" opacity="0.37"/><rect x="285" y="652" width="6" height="8" fill="#FFB347" opacity="0.83"/><rect x="257" y="670" width="6" height="8" fill="#ffd9a0" opacity="0.35"/><rect x="173" y="706" width="6" height="8" fill="#FFB347" opacity="0.57"/><rect x="201" y="706" width="6" height="8" fill="#2DE2E6" opacity="0.77"/><rect x="271" y="706" width="6" height="8" fill="#FFB347" opacity="0.50"/><rect x="201" y="724" width="6" height="8" fill="#ffd9a0" opacity="0.56"/><rect x="229" y="724" width="6" height="8" fill="#ffd9a0" opacity="0.65"/><rect x="187" y="742" width="6" height="8" fill="#ffd9a0" opacity="0.64"/><rect x="299" y="742" width="6" height="8" fill="#ffd9a0" opacity="0.60"/><rect x="321" y="615" width="112" height="147" fill="#0a0a14"/><rect x="398" y="628" width="6" height="8" fill="#FFB347" opacity="0.73"/><rect x="370" y="646" width="6" height="8" fill="#ffd9a0" opacity="0.70"/><rect x="384" y="646" width="6" height="8" fill="#FFB347" opacity="0.46"/><rect x="328" y="664" width="6" height="8" fill="#2DE2E6" opacity="0.42"/><rect x="398" y="664" width="6" height="8" fill="#FFB347" opacity="0.40"/><rect x="328" y="700" width="6" height="8" fill="#ffd9a0" opacity="0.52"/><rect x="328" y="718" width="6" height="8" fill="#ffd9a0" opacity="0.58"/><rect x="398" y="718" width="6" height="8" fill="#ffd9a0" opacity="0.60"/><rect x="370" y="736" width="6" height="8" fill="#FFB347" opacity="0.64"/><rect x="384" y="736" width="6" height="8" fill="#ffd9a0" opacity="0.66"/><rect x="438" y="458" width="117" height="304" fill="#0a0a14"/><rect x="459" y="472" width="6" height="8" fill="#2DE2E6" opacity="0.74"/><rect x="459" y="490" width="6" height="8" fill="#ffd9a0" opacity="0.49"/><rect x="529" y="490" width="6" height="8" fill="#ffd9a0" opacity="0.83"/><rect x="459" y="508" width="6" height="8" fill="#FFB347" opacity="0.65"/><rect x="487" y="544" width="6" height="8" fill="#ffd9a0" opacity="0.36"/><rect x="445" y="562" width="6" height="8" fill="#FFB347" opacity="0.70"/><rect x="473" y="562" width="6" height="8" fill="#ffd9a0" opacity="0.80"/><rect x="445" y="580" width="6" height="8" fill="#FFB347" opacity="0.56"/><rect x="459" y="580" width="6" height="8" fill="#FFB347" opacity="0.72"/><rect x="515" y="580" width="6" height="8" fill="#ffd9a0" opacity="0.70"/><rect x="529" y="580" width="6" height="8" fill="#ffd9a0" opacity="0.59"/><rect x="445" y="616" width="6" height="8" fill="#2DE2E6" opacity="0.54"/><rect x="459" y="616" width="6" height="8" fill="#ffd9a0" opacity="0.78"/><rect x="487" y="652" width="6" height="8" fill="#2DE2E6" opacity="0.70"/><rect x="515" y="652" width="6" height="8" fill="#2DE2E6" opacity="0.81"/><rect x="445" y="670" width="6" height="8" fill="#ffd9a0" opacity="0.68"/><rect x="473" y="670" width="6" height="8" fill="#2DE2E6" opacity="0.50"/><rect x="529" y="670" width="6" height="8" fill="#2DE2E6" opacity="0.42"/><rect x="487" y="688" width="6" height="8" fill="#ffd9a0" opacity="0.40"/><rect x="459" y="706" width="6" height="8" fill="#FFB347" opacity="0.84"/><rect x="529" y="706" width="6" height="8" fill="#FFB347" opacity="0.83"/><rect x="459" y="724" width="6" height="8" fill="#2DE2E6" opacity="0.62"/><rect x="529" y="724" width="6" height="8" fill="#2DE2E6" opacity="0.59"/><rect x="445" y="742" width="6" height="8" fill="#2DE2E6" opacity="0.60"/><rect x="558" y="416" width="139" height="346" fill="#0a0a14"/><rect x="593" y="429" width="6" height="8" fill="#ffd9a0" opacity="0.41"/><rect x="621" y="429" width="6" height="8" fill="#ffd9a0" opacity="0.67"/><rect x="635" y="429" width="6" height="8" fill="#2DE2E6" opacity="0.53"/><rect x="677" y="429" width="6" height="8" fill="#FFB347" opacity="0.67"/><rect x="579" y="447" width="6" height="8" fill="#FFB347" opacity="0.60"/><rect x="593" y="447" width="6" height="8" fill="#FFB347" opacity="0.43"/><rect x="621" y="465" width="6" height="8" fill="#FFB347" opacity="0.37"/><rect x="579" y="483" width="6" height="8" fill="#FFB347" opacity="0.45"/><rect x="607" y="483" width="6" height="8" fill="#FFB347" opacity="0.44"/><rect x="649" y="501" width="6" height="8" fill="#ffd9a0" opacity="0.66"/><rect x="663" y="501" width="6" height="8" fill="#2DE2E6" opacity="0.42"/><rect x="621" y="519" width="6" height="8" fill="#ffd9a0" opacity="0.60"/><rect x="649" y="537" width="6" height="8" fill="#FFB347" opacity="0.48"/><rect x="565" y="555" width="6" height="8" fill="#2DE2E6" opacity="0.48"/><rect x="635" y="555" width="6" height="8" fill="#FFB347" opacity="0.44"/><rect x="593" y="573" width="6" height="8" fill="#ffd9a0" opacity="0.36"/><rect x="565" y="609" width="6" height="8" fill="#FFB347" opacity="0.74"/><rect x="663" y="609" width="6" height="8" fill="#FFB347" opacity="0.61"/><rect x="635" y="663" width="6" height="8" fill="#FFB347" opacity="0.58"/><rect x="649" y="663" width="6" height="8" fill="#ffd9a0" opacity="0.36"/><rect x="635" y="699" width="6" height="8" fill="#FFB347" opacity="0.64"/><rect x="663" y="699" width="6" height="8" fill="#2DE2E6" opacity="0.53"/><rect x="621" y="717" width="6" height="8" fill="#2DE2E6" opacity="0.36"/><rect x="697" y="372" width="183" height="390" fill="#0a0a14"/><rect x="718" y="421" width="6" height="8" fill="#FFB347" opacity="0.41"/><rect x="746" y="421" width="6" height="8" fill="#FFB347" opacity="0.60"/><rect x="718" y="457" width="6" height="8" fill="#2DE2E6" opacity="0.70"/><rect x="802" y="457" width="6" height="8" fill="#ffd9a0" opacity="0.65"/><rect x="830" y="457" width="6" height="8" fill="#FFB347" opacity="0.72"/><rect x="858" y="493" width="6" height="8" fill="#FFB347" opacity="0.47"/><rect x="704" y="511" width="6" height="8" fill="#FFB347" opacity="0.47"/><rect x="718" y="511" width="6" height="8" fill="#ffd9a0" opacity="0.47"/><rect x="732" y="511" width="6" height="8" fill="#ffd9a0" opacity="0.79"/><rect x="788" y="511" width="6" height="8" fill="#FFB347" opacity="0.38"/><rect x="802" y="511" width="6" height="8" fill="#FFB347" opacity="0.51"/><rect x="830" y="511" width="6" height="8" fill="#ffd9a0" opacity="0.36"/><rect x="718" y="529" width="6" height="8" fill="#ffd9a0" opacity="0.38"/><rect x="816" y="529" width="6" height="8" fill="#ffd9a0" opacity="0.55"/><rect x="858" y="529" width="6" height="8" fill="#2DE2E6" opacity="0.40"/><rect x="718" y="547" width="6" height="8" fill="#2DE2E6" opacity="0.70"/><rect x="718" y="565" width="6" height="8" fill="#ffd9a0" opacity="0.65"/><rect x="732" y="565" width="6" height="8" fill="#ffd9a0" opacity="0.72"/><rect x="760" y="565" width="6" height="8" fill="#FFB347" opacity="0.71"/><rect x="816" y="565" width="6" height="8" fill="#FFB347" opacity="0.70"/><rect x="718" y="583" width="6" height="8" fill="#2DE2E6" opacity="0.46"/><rect x="774" y="583" width="6" height="8" fill="#ffd9a0" opacity="0.60"/><rect x="816" y="583" width="6" height="8" fill="#2DE2E6" opacity="0.82"/><rect x="830" y="583" width="6" height="8" fill="#2DE2E6" opacity="0.41"/><rect x="844" y="583" width="6" height="8" fill="#2DE2E6" opacity="0.75"/><rect x="802" y="601" width="6" height="8" fill="#2DE2E6" opacity="0.40"/><rect x="760" y="637" width="6" height="8" fill="#FFB347" opacity="0.84"/><rect x="788" y="637" width="6" height="8" fill="#2DE2E6" opacity="0.73"/><rect x="816" y="637" width="6" height="8" fill="#2DE2E6" opacity="0.78"/><rect x="732" y="655" width="6" height="8" fill="#2DE2E6" opacity="0.50"/><rect x="830" y="655" width="6" height="8" fill="#ffd9a0" opacity="0.36"/><rect x="718" y="691" width="6" height="8" fill="#ffd9a0" opacity="0.43"/><rect x="816" y="709" width="6" height="8" fill="#2DE2E6" opacity="0.79"/><rect x="830" y="709" width="6" height="8" fill="#2DE2E6" opacity="0.62"/><rect x="844" y="709" width="6" height="8" fill="#FFB347" opacity="0.72"/><rect x="858" y="709" width="6" height="8" fill="#2DE2E6" opacity="0.72"/><rect x="774" y="727" width="6" height="8" fill="#ffd9a0" opacity="0.41"/><rect x="788" y="727" width="6" height="8" fill="#ffd9a0" opacity="0.81"/><rect x="816" y="727" width="6" height="8" fill="#FFB347" opacity="0.77"/><rect x="858" y="727" width="6" height="8" fill="#ffd9a0" opacity="0.62"/><rect x="746" y="745" width="6" height="8" fill="#ffd9a0" opacity="0.35"/><rect x="887" y="520" width="116" height="242" fill="#0a0a14"/><rect x="978" y="533" width="6" height="8" fill="#ffd9a0" opacity="0.66"/><rect x="894" y="551" width="6" height="8" fill="#ffd9a0" opacity="0.66"/><rect x="908" y="569" width="6" height="8" fill="#2DE2E6" opacity="0.47"/><rect x="936" y="569" width="6" height="8" fill="#ffd9a0" opacity="0.60"/><rect x="922" y="587" width="6" height="8" fill="#ffd9a0" opacity="0.57"/><rect x="964" y="605" width="6" height="8" fill="#2DE2E6" opacity="0.62"/><rect x="978" y="605" width="6" height="8" fill="#2DE2E6" opacity="0.84"/><rect x="908" y="623" width="6" height="8" fill="#FFB347" opacity="0.44"/><rect x="922" y="623" width="6" height="8" fill="#ffd9a0" opacity="0.39"/><rect x="936" y="623" width="6" height="8" fill="#2DE2E6" opacity="0.37"/><rect x="922" y="713" width="6" height="8" fill="#ffd9a0" opacity="0.75"/><rect x="978" y="713" width="6" height="8" fill="#2DE2E6" opacity="0.36"/><rect x="908" y="731" width="6" height="8" fill="#2DE2E6" opacity="0.55"/><rect x="950" y="731" width="6" height="8" fill="#2DE2E6" opacity="0.49"/><rect x="964" y="749" width="6" height="8" fill="#FFB347" opacity="0.55"/><rect x="1000" y="549" width="110" height="213" fill="#0a0a14"/><rect x="1050" y="599" width="6" height="8" fill="#FFB347" opacity="0.57"/><rect x="1036" y="617" width="6" height="8" fill="#FFB347" opacity="0.50"/><rect x="1050" y="617" width="6" height="8" fill="#ffd9a0" opacity="0.80"/><rect x="1022" y="635" width="6" height="8" fill="#ffd9a0" opacity="0.70"/><rect x="1050" y="635" width="6" height="8" fill="#FFB347" opacity="0.48"/><rect x="1064" y="671" width="6" height="8" fill="#FFB347" opacity="0.84"/><rect x="1022" y="689" width="6" height="8" fill="#2DE2E6" opacity="0.38"/><rect x="1050" y="689" width="6" height="8" fill="#ffd9a0" opacity="0.38"/><rect x="1078" y="707" width="6" height="8" fill="#2DE2E6" opacity="0.65"/><rect x="1008" y="743" width="6" height="8" fill="#ffd9a0" opacity="0.36"/><rect x="1064" y="743" width="6" height="8" fill="#FFB347" opacity="0.65"/><rect x="1114" y="544" width="125" height="218" fill="#0a0a14"/><rect x="1121" y="576" width="6" height="8" fill="#2DE2E6" opacity="0.61"/><rect x="1149" y="576" width="6" height="8" fill="#ffd9a0" opacity="0.70"/><rect x="1177" y="576" width="6" height="8" fill="#ffd9a0" opacity="0.64"/><rect x="1135" y="612" width="6" height="8" fill="#2DE2E6" opacity="0.58"/><rect x="1121" y="648" width="6" height="8" fill="#2DE2E6" opacity="0.46"/><rect x="1121" y="666" width="6" height="8" fill="#FFB347" opacity="0.80"/><rect x="1163" y="666" width="6" height="8" fill="#FFB347" opacity="0.59"/><rect x="1219" y="666" width="6" height="8" fill="#2DE2E6" opacity="0.78"/><rect x="1121" y="684" width="6" height="8" fill="#FFB347" opacity="0.36"/><rect x="1177" y="684" width="6" height="8" fill="#2DE2E6" opacity="0.38"/><rect x="1177" y="702" width="6" height="8" fill="#ffd9a0" opacity="0.59"/><rect x="1219" y="720" width="6" height="8" fill="#FFB347" opacity="0.81"/><rect x="1135" y="738" width="6" height="8" fill="#FFB347" opacity="0.55"/><rect x="1205" y="738" width="6" height="8" fill="#FFB347" opacity="0.64"/><rect x="1244" y="466" width="190" height="296" fill="#0a0a14"/><rect x="1378" y="480" width="6" height="8" fill="#FFB347" opacity="0.35"/><rect x="1406" y="480" width="6" height="8" fill="#ffd9a0" opacity="0.67"/><rect x="1420" y="480" width="6" height="8" fill="#2DE2E6" opacity="0.83"/><rect x="1266" y="498" width="6" height="8" fill="#ffd9a0" opacity="0.78"/><rect x="1294" y="498" width="6" height="8" fill="#FFB347" opacity="0.45"/><rect x="1420" y="498" width="6" height="8" fill="#ffd9a0" opacity="0.78"/><rect x="1322" y="516" width="6" height="8" fill="#ffd9a0" opacity="0.79"/><rect x="1378" y="516" width="6" height="8" fill="#FFB347" opacity="0.51"/><rect x="1266" y="534" width="6" height="8" fill="#2DE2E6" opacity="0.63"/><rect x="1308" y="534" width="6" height="8" fill="#ffd9a0" opacity="0.62"/><rect x="1322" y="534" width="6" height="8" fill="#ffd9a0" opacity="0.83"/><rect x="1336" y="534" width="6" height="8" fill="#ffd9a0" opacity="0.57"/><rect x="1294" y="552" width="6" height="8" fill="#2DE2E6" opacity="0.65"/><rect x="1308" y="552" width="6" height="8" fill="#FFB347" opacity="0.49"/><rect x="1322" y="552" width="6" height="8" fill="#FFB347" opacity="0.75"/><rect x="1280" y="570" width="6" height="8" fill="#2DE2E6" opacity="0.57"/><rect x="1350" y="570" width="6" height="8" fill="#FFB347" opacity="0.56"/><rect x="1280" y="588" width="6" height="8" fill="#FFB347" opacity="0.67"/><rect x="1406" y="588" width="6" height="8" fill="#2DE2E6" opacity="0.63"/><rect x="1420" y="588" width="6" height="8" fill="#2DE2E6" opacity="0.67"/><rect x="1280" y="606" width="6" height="8" fill="#2DE2E6" opacity="0.82"/><rect x="1392" y="606" width="6" height="8" fill="#FFB347" opacity="0.45"/><rect x="1308" y="624" width="6" height="8" fill="#FFB347" opacity="0.41"/><rect x="1406" y="624" width="6" height="8" fill="#2DE2E6" opacity="0.46"/><rect x="1308" y="642" width="6" height="8" fill="#2DE2E6" opacity="0.59"/><rect x="1308" y="660" width="6" height="8" fill="#ffd9a0" opacity="0.55"/><rect x="1322" y="660" width="6" height="8" fill="#ffd9a0" opacity="0.57"/><rect x="1266" y="678" width="6" height="8" fill="#ffd9a0" opacity="0.69"/><rect x="1364" y="678" width="6" height="8" fill="#FFB347" opacity="0.68"/><rect x="1392" y="678" width="6" height="8" fill="#2DE2E6" opacity="0.36"/><rect x="1378" y="696" width="6" height="8" fill="#FFB347" opacity="0.76"/><rect x="1406" y="696" width="6" height="8" fill="#2DE2E6" opacity="0.59"/><rect x="1252" y="714" width="6" height="8" fill="#2DE2E6" opacity="0.45"/><rect x="1322" y="714" width="6" height="8" fill="#ffd9a0" opacity="0.45"/><rect x="1350" y="714" width="6" height="8" fill="#2DE2E6" opacity="0.54"/><rect x="1336" y="732" width="6" height="8" fill="#FFB347" opacity="0.38"/><rect x="1430" y="507" width="105" height="255" fill="#0a0a14"/><rect x="1438" y="557" width="6" height="8" fill="#FFB347" opacity="0.38"/><rect x="1466" y="575" width="6" height="8" fill="#FFB347" opacity="0.83"/><rect x="1522" y="575" width="6" height="8" fill="#ffd9a0" opacity="0.79"/><rect x="1494" y="593" width="6" height="8" fill="#FFB347" opacity="0.49"/><rect x="1508" y="593" width="6" height="8" fill="#ffd9a0" opacity="0.54"/><rect x="1466" y="629" width="6" height="8" fill="#ffd9a0" opacity="0.69"/><rect x="1522" y="629" width="6" height="8" fill="#ffd9a0" opacity="0.46"/><rect x="1466" y="647" width="6" height="8" fill="#ffd9a0" opacity="0.80"/><rect x="1508" y="665" width="6" height="8" fill="#2DE2E6" opacity="0.37"/><rect x="1452" y="683" width="6" height="8" fill="#FFB347" opacity="0.62"/><rect x="1438" y="701" width="6" height="8" fill="#ffd9a0" opacity="0.69"/><rect x="1466" y="701" width="6" height="8" fill="#ffd9a0" opacity="0.56"/><rect x="1494" y="701" width="6" height="8" fill="#FFB347" opacity="0.58"/><rect x="1438" y="719" width="6" height="8" fill="#ffd9a0" opacity="0.65"/><rect x="1452" y="737" width="6" height="8" fill="#FFB347" opacity="0.36"/><rect x="1480" y="737" width="6" height="8" fill="#ffd9a0" opacity="0.67"/><rect x="1535" y="561" width="96" height="201" fill="#0a0a14"/><rect x="1571" y="611" width="6" height="8" fill="#ffd9a0" opacity="0.42"/><rect x="1599" y="629" width="6" height="8" fill="#ffd9a0" opacity="0.38"/><rect x="1585" y="665" width="6" height="8" fill="#FFB347" opacity="0.41"/><rect x="1613" y="665" width="6" height="8" fill="#2DE2E6" opacity="0.35"/><rect x="1543" y="683" width="6" height="8" fill="#2DE2E6" opacity="0.73"/><rect x="1585" y="683" width="6" height="8" fill="#2DE2E6" opacity="0.41"/><rect x="1543" y="701" width="6" height="8" fill="#FFB347" opacity="0.43"/><rect x="1599" y="719" width="6" height="8" fill="#2DE2E6" opacity="0.81"/><rect x="1557" y="737" width="6" height="8" fill="#2DE2E6" opacity="0.75"/><rect x="1626" y="379" width="171" height="383" fill="#0a0a14"/><rect x="1676" y="392" width="6" height="8" fill="#2DE2E6" opacity="0.36"/><rect x="1662" y="410" width="6" height="8" fill="#2DE2E6" opacity="0.53"/><rect x="1732" y="410" width="6" height="8" fill="#FFB347" opacity="0.79"/><rect x="1774" y="410" width="6" height="8" fill="#ffd9a0" opacity="0.37"/><rect x="1676" y="428" width="6" height="8" fill="#ffd9a0" opacity="0.39"/><rect x="1718" y="428" width="6" height="8" fill="#FFB347" opacity="0.82"/><rect x="1760" y="428" width="6" height="8" fill="#2DE2E6" opacity="0.65"/><rect x="1634" y="446" width="6" height="8" fill="#FFB347" opacity="0.50"/><rect x="1690" y="446" width="6" height="8" fill="#2DE2E6" opacity="0.74"/><rect x="1732" y="446" width="6" height="8" fill="#2DE2E6" opacity="0.50"/><rect x="1732" y="482" width="6" height="8" fill="#FFB347" opacity="0.66"/><rect x="1746" y="482" width="6" height="8" fill="#ffd9a0" opacity="0.44"/><rect x="1774" y="482" width="6" height="8" fill="#2DE2E6" opacity="0.53"/><rect x="1648" y="500" width="6" height="8" fill="#FFB347" opacity="0.38"/><rect x="1760" y="518" width="6" height="8" fill="#2DE2E6" opacity="0.61"/><rect x="1648" y="554" width="6" height="8" fill="#FFB347" opacity="0.48"/><rect x="1704" y="554" width="6" height="8" fill="#2DE2E6" opacity="0.68"/><rect x="1676" y="572" width="6" height="8" fill="#FFB347" opacity="0.41"/><rect x="1704" y="572" width="6" height="8" fill="#2DE2E6" opacity="0.52"/><rect x="1676" y="608" width="6" height="8" fill="#ffd9a0" opacity="0.36"/><rect x="1662" y="626" width="6" height="8" fill="#ffd9a0" opacity="0.68"/><rect x="1690" y="626" width="6" height="8" fill="#2DE2E6" opacity="0.61"/><rect x="1676" y="644" width="6" height="8" fill="#ffd9a0" opacity="0.59"/><rect x="1732" y="644" width="6" height="8" fill="#FFB347" opacity="0.35"/><rect x="1746" y="644" width="6" height="8" fill="#FFB347" opacity="0.73"/><rect x="1760" y="644" width="6" height="8" fill="#2DE2E6" opacity="0.58"/><rect x="1634" y="680" width="6" height="8" fill="#2DE2E6" opacity="0.46"/><rect x="1746" y="698" width="6" height="8" fill="#2DE2E6" opacity="0.64"/><rect x="1648" y="716" width="6" height="8" fill="#2DE2E6" opacity="0.39"/><rect x="1732" y="716" width="6" height="8" fill="#2DE2E6" opacity="0.35"/><rect x="1760" y="716" width="6" height="8" fill="#2DE2E6" opacity="0.56"/><rect x="1732" y="734" width="6" height="8" fill="#FFB347" opacity="0.73"/><rect x="1774" y="734" width="6" height="8" fill="#FFB347" opacity="0.67"/><g filter="url(#g82)"><rect x="210" y="300" width="10" height="260" fill="#FF3DB8"/><rect x="980" y="380" width="180" height="10" fill="#2DE2E6"/><rect x="1330" y="250" width="10" height="200" fill="#FFB347"/><rect x="600" y="430" width="120" height="8" fill="#FF3DB8"/></g>
<rect x="212" y="300" width="6" height="260" fill="#ffd0ef"/><rect x="980" y="382" width="180" height="6" fill="#c8fbfc"/><rect x="1332" y="250" width="6" height="200" fill="#ffe2b8"/><rect x="600" y="431" width="120" height="5" fill="#ffd0ef"/>
<rect y="760" width="1600" height="140" fill="url(#a82)"/>
<g opacity=".45" filter="url(#g82)"><rect x="205" y="770" width="20" height="120" fill="#FF3DB8"/><rect x="980" y="770" width="180" height="50" fill="#2DE2E6" opacity=".5"/><rect x="1325" y="770" width="20" height="110" fill="#FFB347"/><rect x="590" y="772" width="140" height="40" fill="#FF3DB8" opacity=".5"/></g>
<g transform="translate(980 250) rotate(-4)">
<polygon points="190,40 900,-60 900,170" fill="url(#fx82)" opacity=".5"/>
<ellipse cx="40" cy="78" rx="70" ry="14" fill="#FFB347" opacity=".55" filter="url(#g82)"/>
<ellipse cx="150" cy="80" rx="50" ry="12" fill="#FFB347" opacity=".55" filter="url(#g82)"/>
<path d="M-60 60 L-10 26 L40 8 L150 4 L196 26 L206 52 L192 66 L-40 74 Z" fill="#1d2030" stroke="#4a5068" stroke-width="2"/>
<path d="M18 22 L56 -4 L128 -4 L160 18 Z" fill="#2DE2E6" opacity=".35" stroke="#7af3f5" stroke-width="1.5"/>
<path d="M-60 60 L206 52" stroke="#7af3f5" stroke-width="2" opacity=".6"/>
<rect x="66" y="-14" width="22" height="9" rx="2" fill="#ff2a3d"/><rect x="90" y="-14" width="22" height="9" rx="2" fill="#2a7dff"/>
<circle cx="77" cy="-10" r="22" fill="#ff2a3d" opacity=".5" filter="url(#g82)"/><circle cx="101" cy="-10" r="22" fill="#2a7dff" opacity=".5" filter="url(#g82)"/>
<circle cx="200" cy="40" r="6" fill="#fff6d8"/><circle cx="200" cy="40" r="18" fill="#fff6d8" opacity=".5" filter="url(#g82)"/>
<rect x="-56" y="54" width="18" height="6" fill="#FF3DB8"/>
</g>
<rect width="1600" height="900" fill="url(#ll82)"/>
</svg>
