<svg xmlns="http://www.w3.org/2000/svg" viewBox="0 0 1600 900" preserveAspectRatio="xMidYMid meet" style="background-color:#221812" role="img" aria-labelledby="talt dalt">
<title id="talt">Piel altadis · luz naranja sobre un mostrador de madera</title>
<desc id="dalt">Ilustración vectorial original de Admira para la piel: un local cálido, un mostrador de madera y una luz naranja. Sin fotogramas, carteles, logotipos, títulos ni personajes de terceros.</desc>
<defs>
<linearGradient id="calt" x1="0" y1="0" x2="0" y2="1"><stop offset="0" stop-color="#221812"/><stop offset="1" stop-color="#3C2D26"/></linearGradient>
<radialGradient id="ralt" cx="50%" cy="20%" r="55%"><stop offset="0" stop-color="#F47920" stop-opacity=".45"/><stop offset="1" stop-color="#F47920" stop-opacity="0"/></radialGradient>
</defs>
<rect width="1600" height="900" fill="url(#calt)"/>
<ellipse cx="800" cy="80" rx="700" ry="280" fill="url(#ralt)"/>
<rect x="0" y="620" width="1600" height="280" fill="#2E1D12"/>
<rect x="60" y="560" width="1480" height="70" rx="6" fill="#3C3126"/>
<rect x="60" y="630" width="1480" height="16" fill="#F47920" opacity=".85"/>
<g>
<rect x="160" y="240" width="360" height="320" fill="#30241D"/>
<rect x="190" y="270" width="140" height="180" fill="#F5F1EF" opacity=".22"/>
<rect x="350" y="270" width="140" height="180" fill="#F47920" opacity=".35"/>
<rect x="190" y="470" width="300" height="18" fill="#D76A1C"/>
<rect x="640" y="180" width="320" height="380" fill="#2C1F19"/>
<rect x="680" y="230" width="240" height="200" fill="#221812"/>
<circle cx="800" cy="310" r="54" fill="#F47920"/>
<circle cx="800" cy="310" r="18" fill="#2C1606"/>
<rect x="720" y="450" width="160" height="14" fill="#F47920" opacity=".7"/>
<rect x="1080" y="260" width="380" height="300" fill="#3C2D26"/>
<rect x="1120" y="300" width="120" height="160" fill="#F7F6F6" opacity=".18"/>
<rect x="1260" y="300" width="160" height="160" fill="#F47920" opacity=".22"/>
<rect x="1120" y="480" width="300" height="16" fill="#7A736B"/>
</g>
<rect x="200" y="700" width="280" height="16" rx="8" fill="#F47920" opacity=".4"/>
<rect x="1100" y="720" width="220" height="12" rx="6" fill="#B6B0AD" opacity=".35"/>
</svg>
